<?xml version="1.0" encoding="UTF-8" standalone="no"?>
<!-- Created with Inkscape (http://www.inkscape.org/) -->

<svg
   width="52.955421mm"
   height="52.955441mm"
   viewBox="0 0 52.955421 52.955441"
   version="1.1"
   id="svg1"
   xml:space="preserve"
   xmlns="http://www.w3.org/2000/svg"
   xmlns:svg="http://www.w3.org/2000/svg"><defs
     id="defs1" /><g
     id="layer1"
     transform="translate(-67.428076,-175.44697)"><circle
       style="opacity:1;fill:#f5f1eb;fill-opacity:1;stroke:none;stroke-width:0.319493;stroke-linecap:round;stroke-linejoin:round;stroke-miterlimit:5;stroke-opacity:1"
       id="path12"
       cx="93.905792"
       cy="201.92468"
       r="26.477715" /><path
       id="path11"
       style="baseline-shift:baseline;display:inline;overflow:visible;vector-effect:none;fill:#315930;stroke-linecap:round;stroke-linejoin:round;stroke-miterlimit:5;enable-background:accumulate;stop-color:#000000"
       d="m 113.03143,205.07206 c -0.0149,2.8e-4 -0.0297,0.003 -0.0439,0.007 -0.90341,0.5898 -2.83795,0.32579 -3.48661,1.18391 l -0.0935,8.55451 c 0.55017,0.51603 1.63024,0.99884 2.42,0.9338 0.66222,-0.0545 -0.78768,-1.98537 -1.07797,-2.50579 0.35813,-0.45524 1.75567,-0.68985 1.76523,-1.45159 0.005,-0.3838 -0.87075,-0.75345 -0.87075,-0.75345 0.71036,-0.24251 4.43433,-0.0444 4.20227,-0.55643 -0.98627,-2.1763 -3.6862,-1.48557 -3.6862,-1.48557 0.1328,-0.36836 1.05182,-1.15724 0.70817,-1.64563 -0.22446,-0.31899 -1.16789,0.0724 -1.16789,0.0724 0.15861,-0.52857 1.90598,-1.9345 1.33118,-2.35334 z" /><path
       id="path5"
       style="baseline-shift:baseline;display:inline;overflow:visible;vector-effect:none;fill:#eecac2;stroke-linecap:round;stroke-linejoin:round;stroke-miterlimit:5;enable-background:accumulate;stop-color:#000000"
       d="m 101.51809,185.54197 a 0.16051605,0.16051605 0 0 0 -0.13074,0.0651 l -8.201055,10.9983 H 78.135534 a 0.16051605,0.16051605 0 0 0 -0.160197,0.15967 v 23.04305 a 0.16051605,0.16051605 0 0 0 0.160197,0.16019 h 31.410486 a 0.16051605,0.16051605 0 0 0 0.15968,-0.16019 v -23.04304 a 0.16051605,0.16051605 0 0 0 -0.0289,-0.0935 l -8.02948,-11.06238 a 0.16051605,0.16051605 0 0 0 -0.12919,-0.0672 z" /><rect
       style="opacity:1;fill:#fef1e9;fill-opacity:1;stroke:none;stroke-width:0.49783;stroke-linecap:round;stroke-linejoin:round;stroke-miterlimit:5;stroke-opacity:1"
       id="rect12"
       width="15.278323"
       height="22.361038"
       x="77.975334"
       y="197.61252" /><path
       id="path4"
       style="baseline-shift:baseline;display:inline;overflow:visible;opacity:1;vector-effect:none;fill:#eecac2;fill-opacity:1;stroke-linecap:round;stroke-linejoin:round;stroke-miterlimit:5;enable-background:accumulate;stop-color:#000000;stop-opacity:1"
       d="m 87.815563,180.0622 a 0.16051605,0.16051605 0 0 0 -0.162264,0.1602 v 4.17184 a 0.16051605,0.16051605 0 0 0 0.162264,0.16226 h 4.570264 a 0.16051605,0.16051605 0 0 0 0.160197,-0.16226 v -4.17184 a 0.16051605,0.16051605 0 0 0 -0.160197,-0.1602 z" /><path
       id="path3"
       style="baseline-shift:baseline;display:inline;overflow:visible;vector-effect:none;fill:#2b2619;stroke-linecap:round;stroke-linejoin:round;stroke-miterlimit:5;enable-background:accumulate;stop-color:#000000"
       d="m 85.077229,184.38855 c -0.04871,1.5e-4 -0.09471,0.0224 -0.125057,0.0605 l -9.736356,12.12071 c -0.08576,0.10509 -0.01058,0.26259 0.125057,0.262 h 17.816483 c 0.05069,-1e-5 0.09839,-0.024 0.128674,-0.0646 l 8.21655,-10.55902 8.15041,10.55902 c 0.0304,0.0408 0.0783,0.0648 0.12919,0.0646 h 1.10329 c 0.1346,9.2e-4 0.21049,-0.15426 0.12713,-0.25993 l -9.38289,-12.12071 c -0.0304,-0.0394 -0.0774,-0.0625 -0.12713,-0.0625 z" /><path
       id="path6"
       style="baseline-shift:baseline;display:inline;overflow:visible;vector-effect:none;fill:#2b2619;fill-opacity:1;stroke-linecap:round;stroke-linejoin:round;stroke-miterlimit:5;enable-background:accumulate;stop-color:#000000"
       d="m 84.305359,211.50086 a 0.16051605,0.16051605 0 0 0 -0.160197,0.16227 v 8.14627 a 0.16051605,0.16051605 0 0 0 0.160197,0.1602 h 4.304646 a 0.16051605,0.16051605 0 0 0 0.160197,-0.1602 v -8.14627 a 0.16051605,0.16051605 0 0 0 -0.160197,-0.16227 z" /><path
       id="rect7-5-1"
       style="fill:#2b2619;stroke-width:0.294387;stroke-linecap:round;stroke-linejoin:round;stroke-miterlimit:5"
       d="m 100.78893,200.88395 h 1.09283 v 1.9827 h -1.09283 z m 1.82787,0 h 1.09283 v 1.9827 h -1.09283 z m 0,-3.2095 h 1.09283 v 2.35739 h -1.09283 z m -1.82787,0 h 1.09283 v 2.35739 h -1.09283 z" /><path
       id="rect7-5-1-2"
       style="fill:#2b2619;stroke-width:0.294387;stroke-linecap:round;stroke-linejoin:round;stroke-miterlimit:5"
       d="m 100.82338,211.42852 h 1.09283 v 1.9827 h -1.09283 z m 1.82788,0 h 1.09283 v 1.9827 h -1.09283 z m 0,-3.2095 h 1.09283 v 2.35739 h -1.09283 z m -1.82788,0 h 1.09283 v 2.35739 h -1.09283 z" /><path
       id="rect7-5"
       style="fill:#2b2619;stroke-width:0.321;stroke-linecap:round;stroke-linejoin:round;stroke-miterlimit:5"
       d="m 89.580676,201.23415 h 0.949376 v 2.48383 h -0.949376 z m 0,3.07252 h 0.949376 v 2.19681 h -0.949376 z m -1.573135,0 h 0.949375 v 2.19681 h -0.949375 z m 0,-3.07252 h 0.949375 v 2.48383 h -0.949375 z" /><path
       id="rect7-5-3"
       style="fill:#2b2619;stroke-width:0.321;stroke-linecap:round;stroke-linejoin:round;stroke-miterlimit:5"
       d="m 82.678464,201.23415 h 0.949376 v 2.48383 h -0.949376 z m 0,3.07252 h 0.949376 v 2.19682 h -0.949376 z m -1.573135,0 h 0.949375 v 2.19682 h -0.949375 z m 0,-3.07252 h 0.949375 v 2.48383 h -0.949375 z" /><path
       id="path9"
       style="baseline-shift:baseline;display:inline;overflow:visible;vector-effect:none;fill:#315930;stroke-linecap:round;stroke-linejoin:round;stroke-miterlimit:5;enable-background:accumulate;stop-color:#000000"
       d="m 75.907664,203.60471 c -1.495478,3.75129 1.040628,3.11616 1.383895,4.71909 0.08393,0.3919 0.282064,0.8082 0.163814,1.19114 -0.396989,1.28561 -2.310777,-0.16101 -2.708879,2.99258 2.842403,0.18978 2.716205,-1.67855 2.951241,-0.69556 0.193044,0.80737 0.162902,0.87083 0.187586,1.07435 0.115508,0.95234 -1.221296,-0.71975 -2.56832,1.29863 1.490932,2.17786 2.559296,-0.32304 2.853056,0.60358 0.880899,2.77864 -1.491334,-0.30274 -2.27665,3.23165 1.712802,0.95085 2.188324,-0.34055 2.763305,-0.81741 0.01316,0.55744 -0.20156,1.88954 0.464764,2.69928 0.813665,-0.93315 0.267301,-2.30657 0.323984,-2.83791 0.334494,-0.40548 1.038094,1.13032 2.32312,0.0973 -0.563166,-2.95237 -2.287865,-0.65579 -2.514297,-1.66353 -0.203249,-0.90456 -0.456696,-0.8002 -0.433622,-2.50642 0.01649,-1.2195 1.739525,1.07951 3.581725,-0.74708 -1.752238,-2.34777 -3.449889,0.25341 -3.771377,-0.71536 -0.234331,-0.70613 -0.346646,-1.46571 -0.318327,-2.20917 0.03399,-0.89239 1.1023,1.3006 4.05113,-0.82024 -3.019275,-1.26364 -3.446862,0.30086 -4.044929,-0.006 -1.616543,-0.82955 1.259879,-2.40615 -2.411222,-4.88859 z" /></g></svg>
